# xmcd
#
# Track frame offsets:
#	150
#	21905
#	32323
#	47735
#
# Disc length: 1069 seconds
#
# Revision: 0
# Processed by: cddbd v1.5.2PL0 Copyright (c) Steve Scherf et al.
# Submitted via: audiograbber 1.83.01
#
DISCID=25042b04
DTITLE=Wolfgang Niedecken - Reinrassije Strooßekööter - Das Familienalbum - CD 
DTITLE=2
DYEAR=2017
DGENRE=Deutsch
TTITLE0=Forever Young - Für immer jung
TTITLE1=I'm Going To miss You
TTITLE2=Jebootsdaachspogo (Mädels)
TTITLE3=Bernsteintropfen (Warme worte)
EXTD=
EXTT0=
EXTT1=
EXTT2=
EXTT3=
PLAYORDER=
